<svg xmlns="http://www.w3.org/2000/svg" viewBox="0 0 332.84 52.61"><defs><style>.cls-1{fill:#ffffff;}</style></defs><g id="Layer_2" data-name="Layer 2"><g id="Layer_1-2" data-name="Layer 1"><polygon class="cls-1" points="40.34 12.27 40.34 0 0 0 0 40.34 12.27 40.34 12.27 12.27 40.34 12.27"/><polygon class="cls-1" points="40.34 12.27 40.34 40.34 12.27 40.34 12.27 52.61 52.61 52.61 52.61 12.27 40.34 12.27"/><path class="cls-1" d="M64.79,40.26V12.32H77.74a14,14,0,0,1,5.11.82A6.7,6.7,0,0,1,86,15.49a6.35,6.35,0,0,1,1.06,3.7,6.53,6.53,0,0,1-1.23,4,6.08,6.08,0,0,1-3.58,2.19l-.09-.76a9.38,9.38,0,0,1,3.42,1.4,7.1,7.1,0,0,1,2.24,2.46,6.73,6.73,0,0,1,.8,3.29,8.5,8.5,0,0,1-.76,3.69,7.07,7.07,0,0,1-2.18,2.65,9.54,9.54,0,0,1-3.33,1.6,15.87,15.87,0,0,1-4.21.52Zm6.7-16.72h5.24a4.77,4.77,0,0,0,1.87-.34,2.62,2.62,0,0,0,1.17-1,2.67,2.67,0,0,0,.4-1.5,2.44,2.44,0,0,0-.92-2A4.34,4.34,0,0,0,76.48,18h-5Zm0,11.05h6.42a5,5,0,0,0,2-.36,3,3,0,0,0,1.28-1,3.11,3.11,0,0,0,.46-1.7,2.48,2.48,0,0,0-.49-1.56,3.05,3.05,0,0,0-1.36-1,5.91,5.91,0,0,0-2.09-.33H71.49Z"/><path class="cls-1" d="M91.69,40.26V10.72H98.4V40.26Z"/><path class="cls-1" d="M113.19,40.66A12.93,12.93,0,0,1,107,39.22a11.12,11.12,0,0,1-4.27-3.91,10.33,10.33,0,0,1-1.57-5.67A10.3,10.3,0,0,1,102.74,24,11.15,11.15,0,0,1,107,20.06a14.09,14.09,0,0,1,12.37,0A11,11,0,0,1,123.63,24a10.45,10.45,0,0,1,1.55,5.66,10.49,10.49,0,0,1-1.55,5.67,11,11,0,0,1-4.25,3.91A13,13,0,0,1,113.19,40.66Zm0-5.51a5.06,5.06,0,0,0,2.69-.72,5.15,5.15,0,0,0,1.84-2,5.51,5.51,0,0,0,.63-2.84,5.59,5.59,0,0,0-.63-2.85,5,5,0,0,0-4.53-2.7,5.15,5.15,0,0,0-2.7.72,4.93,4.93,0,0,0-1.86,2,5.59,5.59,0,0,0-.63,2.85,5.51,5.51,0,0,0,.63,2.84,5,5,0,0,0,1.86,2A5.15,5.15,0,0,0,113.19,35.15Z"/><path class="cls-1" d="M138.51,40.66a11.59,11.59,0,0,1-5.79-1.44,10.73,10.73,0,0,1-5.53-9.58,10.76,10.76,0,0,1,5.53-9.58,11.69,11.69,0,0,1,5.79-1.43,14.74,14.74,0,0,1,5.47,1,9.64,9.64,0,0,1,4,2.8l-3.65,4.15a8.62,8.62,0,0,0-1.38-1.2,7.25,7.25,0,0,0-1.76-.88,6.52,6.52,0,0,0-2-.32,5.57,5.57,0,0,0-2.8.7,4.9,4.9,0,0,0-1.89,1.94,5.8,5.8,0,0,0-.67,2.83,5.6,5.6,0,0,0,.69,2.76,5.18,5.18,0,0,0,1.91,2,5.31,5.31,0,0,0,2.76.72,7.21,7.21,0,0,0,2-.26,5.66,5.66,0,0,0,1.69-.78,7.47,7.47,0,0,0,1.45-1.27l3.6,4.19a9.56,9.56,0,0,1-4,2.71A14.58,14.58,0,0,1,138.51,40.66Z"/><path class="cls-1" d="M150.74,40.26V10.72h6.71V40.26ZM157.2,34l-2.47-4.79,10.39-10.17H174Zm8.63,6.23L158,30.6l4.74-3.51,11,13.17Z"/><path class="cls-1" d="M185,40.66a11.56,11.56,0,0,1-5.78-1.44,10.73,10.73,0,0,1-5.53-9.58,10.76,10.76,0,0,1,5.53-9.58A11.66,11.66,0,0,1,185,18.63a14.67,14.67,0,0,1,5.47,1,9.64,9.64,0,0,1,4,2.8l-3.64,4.15a9.17,9.17,0,0,0-1.39-1.2,6.91,6.91,0,0,0-1.76-.88,6.41,6.41,0,0,0-2-.32,5.6,5.6,0,0,0-2.81.7,4.81,4.81,0,0,0-1.88,1.94,5.8,5.8,0,0,0-.67,2.83,5.6,5.6,0,0,0,.69,2.76,5.11,5.11,0,0,0,1.91,2,5.31,5.31,0,0,0,2.76.72,7.09,7.09,0,0,0,2-.26,5.72,5.72,0,0,0,1.7-.78,7.47,7.47,0,0,0,1.45-1.27l3.6,4.19a9.56,9.56,0,0,1-4,2.71A14.6,14.6,0,0,1,185,40.66Z"/><path class="cls-1" d="M198.06,40.26V10.72h6.58V23.38l-1.34.48A6.52,6.52,0,0,1,205,21.24a9.24,9.24,0,0,1,2.87-1.89,8.83,8.83,0,0,1,3.52-.72,8.5,8.5,0,0,1,4.24,1,6.29,6.29,0,0,1,2.6,2.92,11.51,11.51,0,0,1,.88,4.73v13h-6.75V27.77a5.22,5.22,0,0,0-.38-2.12,2.57,2.57,0,0,0-1.15-1.26,3.65,3.65,0,0,0-1.91-.37,5,5,0,0,0-1.63.25,3.72,3.72,0,0,0-1.3.76,3.9,3.9,0,0,0-.86,1.14,3.13,3.13,0,0,0-.32,1.4V40.26h-6.7Z"/><path class="cls-1" d="M232.05,40.62a9,9,0,0,1-5-1.42,10,10,0,0,1-3.5-3.91,12,12,0,0,1-1.3-5.65,12,12,0,0,1,1.3-5.7A9.94,9.94,0,0,1,227.1,20a9.56,9.56,0,0,1,5.16-1.41,9,9,0,0,1,2.91.44,7.63,7.63,0,0,1,2.32,1.21,7.92,7.92,0,0,1,1.72,1.8,7.14,7.14,0,0,1,1,2.17l-1.38-.16v-5h6.66V40.26h-6.79V35.15l1.51,0a6.68,6.68,0,0,1-1.09,2.12A8.08,8.08,0,0,1,237.33,39a9.19,9.19,0,0,1-5.28,1.64Zm1.84-5.39a5,5,0,0,0,2.68-.68,4.58,4.58,0,0,0,1.76-1.93,6.58,6.58,0,0,0,.63-3,6.57,6.57,0,0,0-.63-3,4.72,4.72,0,0,0-1.76-2,5,5,0,0,0-2.68-.69,4.88,4.88,0,0,0-2.62.69,4.81,4.81,0,0,0-1.74,2,6.57,6.57,0,0,0-.63,3,6.58,6.58,0,0,0,.63,3,4.66,4.66,0,0,0,1.74,1.93A4.87,4.87,0,0,0,233.89,35.23Z"/><path class="cls-1" d="M252.67,14.87a4.61,4.61,0,0,1-3-.85,3,3,0,0,1-1.07-2.46,2.94,2.94,0,0,1,1.09-2.35,4.44,4.44,0,0,1,2.94-.92,4.53,4.53,0,0,1,2.93.86,2.93,2.93,0,0,1,1,2.41,3,3,0,0,1-1.07,2.4A4.32,4.32,0,0,1,252.67,14.87Zm-3.36,25.39V19.07H256V40.26Z"/><path class="cls-1" d="M259.79,40.26V19.07h6.37l.21,4.31-1.34.48a6.52,6.52,0,0,1,1.65-2.62,9.18,9.18,0,0,1,2.88-1.89,8.8,8.8,0,0,1,3.52-.72,8.48,8.48,0,0,1,4.23,1,6.29,6.29,0,0,1,2.6,2.92,11.51,11.51,0,0,1,.88,4.73v13H274V27.77a5.22,5.22,0,0,0-.38-2.12,2.57,2.57,0,0,0-1.15-1.26A3.65,3.65,0,0,0,270.6,24a5.06,5.06,0,0,0-1.63.25,3.81,3.81,0,0,0-1.3.76,4.08,4.08,0,0,0-.86,1.14,3.12,3.12,0,0,0-.31,1.4V40.26h-6.71Z"/><path class="cls-1" d="M286.28,40.26V12.32h13a14,14,0,0,1,5.11.82,6.62,6.62,0,0,1,3.16,2.35,6.28,6.28,0,0,1,1.07,3.7,6.53,6.53,0,0,1-1.23,4,6.07,6.07,0,0,1-3.59,2.19l-.08-.76a9.26,9.26,0,0,1,3.41,1.4,7,7,0,0,1,2.25,2.46,6.73,6.73,0,0,1,.79,3.29,8.5,8.5,0,0,1-.75,3.69,7.07,7.07,0,0,1-2.18,2.65,9.54,9.54,0,0,1-3.33,1.6,15.87,15.87,0,0,1-4.21.52ZM293,23.54h5.24a4.77,4.77,0,0,0,1.87-.34,2.67,2.67,0,0,0,1.17-1,2.75,2.75,0,0,0,.4-1.5,2.42,2.42,0,0,0-.93-2A4.29,4.29,0,0,0,298,18h-5Zm0,11.05h6.41a4.88,4.88,0,0,0,2-.36,2.84,2.84,0,0,0,1.28-1,3,3,0,0,0,.46-1.7,2.54,2.54,0,0,0-.48-1.56,3.05,3.05,0,0,0-1.36-1,6,6,0,0,0-2.1-.33H293Z"/><path class="cls-1" d="M314.65,40.26,326.38,14.8l2,3.19H313.06V12.08h19.11l.67,3.23L321.77,40.26Z"/></g></g></svg>