<?xml version="1.0" encoding="UTF-8"?>
<svg xmlns="http://www.w3.org/2000/svg" id="Layer_1" data-name="Layer 1" width="128" height="31.01" viewBox="0 0 128 31.01">
  <defs>
    <style>
      .cls-1 {
        fill: #fff;
      }
    </style>
  </defs>
  <g>
    <path class="cls-1" d="M32.87,9.62A2.76,2.76,0,0,1,33,8.52a4.4,4.4,0,0,1,1.4-.14,4.68,4.68,0,0,1,1.37.14c.12.08.13.51.13,1.1v9.73a1.17,1.17,0,0,0,.09.5,1.11,1.11,0,0,0,.51.09h4.64A2.42,2.42,0,0,1,42,20a6.28,6.28,0,0,1,.1,1.28,5.69,5.69,0,0,1-.1,1.23c-.06.08-.4.1-.87.1H34.24a2.48,2.48,0,0,1-1.17-.21,2.51,2.51,0,0,1-.2-1.17Z"></path>
    <path class="cls-1" d="M44.3,15.82c0-3.71.49-6.35.85-6.74s2-.79,4.83-.79,4.68.49,5,.81.84,3,.84,6.72v5.66a2.79,2.79,0,0,1-.11,1.11,5,5,0,0,1-1.38.13A4.52,4.52,0,0,1,53,22.59c-.11-.08-.13-.5-.13-1.11V19a2.92,2.92,0,0,0-.09-.81,2.86,2.86,0,0,0-.81-.09H48.15a2.51,2.51,0,0,0-.81.09,3,3,0,0,0-.09.81v2.5a2.57,2.57,0,0,1-.12,1.11,4.73,4.73,0,0,1-1.36.13,4.75,4.75,0,0,1-1.35-.13c-.1-.07-.12-.51-.12-1.11Zm7.64-.1a2.39,2.39,0,0,0,.81-.1,3.06,3.06,0,0,0,.09-.85c0-1.59-.19-3.43-.46-3.68A4.84,4.84,0,0,0,50,10.68a4.91,4.91,0,0,0-2.33.41c-.29.23-.46,2.09-.46,3.67a3,3,0,0,0,.09.86,2.7,2.7,0,0,0,.81.1Z"></path>
    <path class="cls-1" d="M59.27,9.43a1.84,1.84,0,0,1,.27-1,4,4,0,0,1,1.33-.14,4.27,4.27,0,0,1,1.36.14,3.59,3.59,0,0,1,.51.83L66,15.93c.06.1.15.12.21,0l3.26-6.66A3.72,3.72,0,0,1,70,8.44a3.5,3.5,0,0,1,1.26-.15,4,4,0,0,1,1.28.14c.06.05.2.31.27,1l1.24,12.12a1.69,1.69,0,0,1,0,.77,3.7,3.7,0,0,1-1.42.33c-.42,0-.76,0-1,0a.71.71,0,0,1-.38-.07,2.48,2.48,0,0,1-.15-.9l-.7-8.56c0-.14-.14-.17-.2,0l-2.93,6a1.85,1.85,0,0,1-.26.37,4.46,4.46,0,0,1-1.08.1,3.26,3.26,0,0,1-1-.11,1.25,1.25,0,0,1-.27-.37L61.9,13.25c-.06-.12-.18-.09-.19,0l-.78,8.52a2.16,2.16,0,0,1-.17.88s-.19,0-.42,0-.52,0-.85,0a3.67,3.67,0,0,1-1.32-.33,2.22,2.22,0,0,1,0-.89Z"></path>
    <path class="cls-1" d="M76.47,15.82c0-3.71.49-6.35.85-6.74s2-.79,4.83-.79,4.68.49,5,.81.83,3,.83,6.72v5.66a2.79,2.79,0,0,1-.11,1.11,4.82,4.82,0,0,1-1.37.13,4.55,4.55,0,0,1-1.34-.13c-.11-.08-.13-.5-.13-1.11V19a2.92,2.92,0,0,0-.09-.81,2.83,2.83,0,0,0-.8-.09h-3.8a2.43,2.43,0,0,0-.8.09,2.83,2.83,0,0,0-.1.81v2.5a2.57,2.57,0,0,1-.12,1.11,4.73,4.73,0,0,1-1.36.13,4.61,4.61,0,0,1-1.34-.13c-.11-.07-.13-.51-.13-1.11Zm7.65-.1a2.36,2.36,0,0,0,.8-.1,3.06,3.06,0,0,0,.09-.85c0-1.59-.18-3.43-.46-3.68a4.84,4.84,0,0,0-2.34-.41,4.94,4.94,0,0,0-2.33.41c-.28.23-.46,2.09-.46,3.67a2.8,2.8,0,0,0,.1.86,2.61,2.61,0,0,0,.8.1Z"></path>
    <path class="cls-1" d="M90.83,20.86a2.73,2.73,0,0,1,.36-1.11,36.13,36.13,0,0,0,4.54.43,6.72,6.72,0,0,0,2.56-.3,2.44,2.44,0,0,0,.24-1.31,1.8,1.8,0,0,0-.2-1.05,32.52,32.52,0,0,0-3.67-1.09c-2.14-.61-3.1-1-3.34-1.26a7.27,7.27,0,0,1-.52-3A7,7,0,0,1,91.29,9c.27-.31,1.78-.84,4.59-.84a11.77,11.77,0,0,1,4.75.71,3.53,3.53,0,0,1-.11,1.07c-.1.48-.31,1.14-.47,1.14a23.44,23.44,0,0,0-3.83-.48,6.26,6.26,0,0,0-2.54.35,2.3,2.3,0,0,0-.2,1.28c0,.5,0,.86.19,1a14.4,14.4,0,0,0,3,.85,15.55,15.55,0,0,1,4.06,1.4,8.45,8.45,0,0,1,.47,3.12,8.13,8.13,0,0,1-.6,3.42c-.22.21-2.1.77-5.11.77a16.26,16.26,0,0,1-4.7-.66A3.86,3.86,0,0,1,90.83,20.86Z"></path>
    <path class="cls-1" d="M103.54,20.86a2.58,2.58,0,0,1,.36-1.11,36.13,36.13,0,0,0,4.54.43,6.76,6.76,0,0,0,2.56-.3,2.44,2.44,0,0,0,.24-1.31,1.8,1.8,0,0,0-.2-1.05,34,34,0,0,0-3.67-1.09c-2.14-.61-3.1-1-3.34-1.26a7.11,7.11,0,0,1-.52-3A6.8,6.8,0,0,1,104,9c.27-.31,1.78-.84,4.59-.84a11.77,11.77,0,0,1,4.75.71,3.53,3.53,0,0,1-.11,1.07c-.11.48-.31,1.14-.47,1.14a23.44,23.44,0,0,0-3.83-.48,6.26,6.26,0,0,0-2.54.35,2.3,2.3,0,0,0-.2,1.28c0,.5,0,.86.19,1a14.14,14.14,0,0,0,3,.85,15.71,15.71,0,0,1,4.06,1.4,8.67,8.67,0,0,1,.47,3.12,8.13,8.13,0,0,1-.6,3.42c-.22.21-2.1.77-5.11.77a16.26,16.26,0,0,1-4.7-.66A3.86,3.86,0,0,1,103.54,20.86Z"></path>
    <path class="cls-1" d="M116.41,9.53c0-.61,0-1,.12-1.1a3.31,3.31,0,0,1,1.27-.14,4,4,0,0,1,1.37.14,2.7,2.7,0,0,1,.11,1.1v5.91a13.2,13.2,0,0,0,.5,4.12c.18.24,1.06.4,2.38.4a5.37,5.37,0,0,0,2.5-.41c.31-.33.47-2.24.47-4.11V9.53a2.49,2.49,0,0,1,.12-1.1,4,4,0,0,1,1.36-.14,3.41,3.41,0,0,1,1.27.14c.11.09.12.49.12,1.1v6.22c0,3.08-.46,5.82-.81,6.18s-1.92.79-4.9.79-4.76-.46-5.05-.78-.83-3.15-.83-6.19Z"></path>
    <path class="cls-1" d="M9.39,28.89,10.94,31H8.84c-.26-.43-1.09-1.77-1.52-2.3a4.69,4.69,0,0,0,2-3.07,10,10,0,0,1,2.59.22l.14,0A3.85,3.85,0,0,1,9.39,28.89ZM23.3,17a9.17,9.17,0,0,1-1.16,7.65,9.32,9.32,0,0,0-1.81,5l.56.45.29.93H18.06a11.67,11.67,0,0,1,.78-5,2.9,2.9,0,0,0,.93-.48,5.77,5.77,0,0,1-1.66,0A9.36,9.36,0,0,0,19,23.48l-.31-.07c-.11.24-.22.48-.34.72a22.81,22.81,0,0,0-2.11,5.48l.55.44.53,1H13.7a13,13,0,0,1,1.11-5.46c-1.9.21-4.18-.76-6-.39-.5,3.24-3,3.88-4.22,3.7l-.85,1.45.77.7H1.68a.86.86,0,0,0-.13-.38,15.24,15.24,0,0,0,1.58-3.27A1.35,1.35,0,0,0,4.78,26c0-1.16-.15-3,.86-4.33a15.51,15.51,0,0,1,3.52-3.21l3.47-2.65-.49-.14L8.6,18.37H7.36l3.58-3.05-.47-.14L6.74,18.37H5.48l3.7-3.57-.44-.13L4.9,18.37H3.62l3.71-4.11-.43-.13L3.07,18.37H1.73l3.6-4.7-.41-.12-3.7,4.82H0L6.22,8.65c1-1.59,2.14-3,4-3.29a3.44,3.44,0,0,1,4,1.69c.49.82,1.08,1.79,1.54,2.54a5.05,5.05,0,0,0-1.11,2.32A1.57,1.57,0,0,0,16,13.69a1.4,1.4,0,0,1-.77-1.7c.2-.88.89-1.33,1.42-2.05a3,3,0,0,0,.43-1.83.94.94,0,0,0-.37-.53s0-.61,0-1.27a1.81,1.81,0,0,1,.27-1s0-1-.05-2.15a3.34,3.34,0,0,0-.24-1.59,1.71,1.71,0,0,1,.39-.66l.3.28.1-.64a2.36,2.36,0,0,1,.73-.35l.09,0,.39.46L18.91,0a2.7,2.7,0,0,1,.92,0l.22.61.28-.44a.87.87,0,0,1,.38.35,3.72,3.72,0,0,0,0,1c.08.58.33,1.85.33,1.85a4.54,4.54,0,0,1,.74,1,10.45,10.45,0,0,1,.23,2.09,6.91,6.91,0,0,0-2.33-.69l-.47.42a6.87,6.87,0,0,1,2.35.7,5.15,5.15,0,0,1,.29,1l-.37.47.35.38a2.86,2.86,0,0,1-.13.9c.72.47.92,1.6,1.38,3.5S24,16.6,24,16.6Zm-10.66.63c-1.61,1.09-3.84,2.68-4.15,3,0,0-.11,1-.17,1.93l-1.4.91s0-.54.09-.91l-.26.19s-.09.44-.16,1l.31.19,1.83-1.14s.07-1.24.11-2c.7-.56,1.74-1.27,2.76-2S12.64,17.62,12.64,17.62Zm3.3,5.49a10.85,10.85,0,0,1-3.44.14l-.07.29a10.22,10.22,0,0,0,3.29.08C15.83,23.4,15.85,23.33,15.94,23.11ZM19.27,7.73l.1.15a4.64,4.64,0,0,1,.83.21v.74l.12.14a1,1,0,0,1,.43-.16l-.16-1.07.06-.11a3.29,3.29,0,0,0-1-.29ZM23,16.27a24.64,24.64,0,0,0-2.72-.82c-.25-1.28-.62-3.19-.87-4.11s-.56-.83-.56-.83c.58,2.72,1,5.28,1,5.28,1.26.29,2.75.77,2.75.77Z"></path>
  </g>
</svg>
