<?xml version="1.0" encoding="UTF-8"?>
<svg xmlns="http://www.w3.org/2000/svg" width="114" height="115" viewBox="0 0 114 115" fill="none">
  <g clip-path="url(#clip0_175_4139)">
    <path d="M111.253 60.2381C109.736 60.2381 108.506 59.0122 108.506 57.5C108.506 55.9878 109.736 54.7619 111.253 54.7619C112.77 54.7619 114 55.9878 114 57.5C114 59.0122 112.77 60.2381 111.253 60.2381Z" fill="white"></path>
    <path d="M104.386 53.3929C102.868 53.3929 101.639 52.167 101.639 50.6548C101.639 49.1426 102.868 47.9167 104.386 47.9167C105.903 47.9167 107.133 49.1426 107.133 50.6548C107.133 52.167 105.903 53.3929 104.386 53.3929Z" fill="white"></path>
    <path d="M104.386 67.0834C102.868 67.0834 101.639 65.8575 101.639 64.3453C101.639 62.8331 102.868 61.6072 104.386 61.6072C105.903 61.6072 107.133 62.8331 107.133 64.3453C107.133 65.8575 105.903 67.0834 104.386 67.0834Z" fill="white"></path>
    <path d="M97.5181 73.9286C96.001 73.9286 94.7711 72.7027 94.7711 71.1905C94.7711 69.6783 96.001 68.4524 97.5181 68.4524C99.0352 68.4524 100.265 69.6783 100.265 71.1905C100.265 72.7027 99.0352 73.9286 97.5181 73.9286Z" fill="white"></path>
    <path d="M90.6506 80.7738C89.1335 80.7738 87.9036 79.5479 87.9036 78.0357C87.9036 76.5235 89.1335 75.2976 90.6506 75.2976C92.1677 75.2976 93.3976 76.5235 93.3976 78.0357C93.3976 79.5479 92.1677 80.7738 90.6506 80.7738Z" fill="white"></path>
    <path d="M83.7831 87.619C82.266 87.619 81.0361 86.3931 81.0361 84.8809C81.0361 83.3687 82.266 82.1428 83.7831 82.1428C85.3003 82.1428 86.5301 83.3687 86.5301 84.8809C86.5301 86.3931 85.3003 87.619 83.7831 87.619Z" fill="white"></path>
    <path d="M76.9157 94.4642C75.3986 94.4642 74.1687 93.2383 74.1687 91.7261C74.1687 90.2139 75.3986 88.988 76.9157 88.988C78.4328 88.988 79.6627 90.2139 79.6627 91.7261C79.6627 93.2383 78.4328 94.4642 76.9157 94.4642Z" fill="white"></path>
    <path d="M70.0482 101.31C68.5311 101.31 67.3012 100.084 67.3012 98.5715C67.3012 97.0593 68.5311 95.8334 70.0482 95.8334C71.5653 95.8334 72.7952 97.0593 72.7952 98.5715C72.7952 100.084 71.5653 101.31 70.0482 101.31Z" fill="white"></path>
    <path d="M63.1807 108.155C61.6636 108.155 60.4337 106.929 60.4337 105.417C60.4337 103.904 61.6636 102.679 63.1807 102.679C64.6978 102.679 65.9277 103.904 65.9277 105.417C65.9277 106.929 64.6978 108.155 63.1807 108.155Z" fill="white"></path>
    <path d="M56.3133 115C54.7961 115 53.5663 113.774 53.5663 112.262C53.5663 110.75 54.7961 109.524 56.3133 109.524C57.8304 109.524 59.0602 110.75 59.0602 112.262C59.0602 113.774 57.8304 115 56.3133 115Z" fill="white"></path>
    <path d="M97.5181 46.5476C96.001 46.5476 94.7711 45.3217 94.7711 43.8095C94.7711 42.2973 96.001 41.0714 97.5181 41.0714C99.0352 41.0714 100.265 42.2973 100.265 43.8095C100.265 45.3217 99.0352 46.5476 97.5181 46.5476Z" fill="white"></path>
    <path d="M90.6506 39.7024C89.1335 39.7024 87.9036 38.4765 87.9036 36.9643C87.9036 35.4521 89.1335 34.2262 90.6506 34.2262C92.1677 34.2262 93.3976 35.4521 93.3976 36.9643C93.3976 38.4765 92.1677 39.7024 90.6506 39.7024Z" fill="white"></path>
    <path d="M83.7831 32.8572C82.266 32.8572 81.0361 31.6313 81.0361 30.1191C81.0361 28.6069 82.266 27.381 83.7831 27.381C85.3003 27.381 86.5301 28.6069 86.5301 30.1191C86.5301 31.6313 85.3003 32.8572 83.7831 32.8572Z" fill="white"></path>
    <path d="M76.9157 26.0119C75.3986 26.0119 74.1687 24.786 74.1687 23.2738C74.1687 21.7616 75.3986 20.5357 76.9157 20.5357C78.4328 20.5357 79.6627 21.7616 79.6627 23.2738C79.6627 24.786 78.4328 26.0119 76.9157 26.0119Z" fill="white"></path>
    <path d="M70.0482 19.1667C68.5311 19.1667 67.3012 17.9408 67.3012 16.4286C67.3012 14.9164 68.5311 13.6905 70.0482 13.6905C71.5653 13.6905 72.7952 14.9164 72.7952 16.4286C72.7952 17.9408 71.5653 19.1667 70.0482 19.1667Z" fill="white"></path>
    <path d="M63.1807 12.3214C61.6636 12.3214 60.4337 11.0955 60.4337 9.58331C60.4337 8.0711 61.6636 6.84521 63.1807 6.84521C64.6978 6.84521 65.9277 8.0711 65.9277 9.58331C65.9277 11.0955 64.6978 12.3214 63.1807 12.3214Z" fill="white"></path>
    <path d="M56.3133 5.47619C54.7961 5.47619 53.5663 4.2503 53.5663 2.7381C53.5663 1.22589 54.7961 0 56.3133 0C57.8304 0 59.0602 1.22589 59.0602 2.7381C59.0602 4.2503 57.8304 5.47619 56.3133 5.47619Z" fill="white"></path>
    <path d="M104.386 60.067C102.963 60.067 101.81 58.9177 101.81 57.5C101.81 56.0823 102.963 54.933 104.386 54.933C105.808 54.933 106.961 56.0823 106.961 57.5C106.961 58.9177 105.808 60.067 104.386 60.067Z" fill="white"></path>
    <path d="M97.518 53.2218C96.0957 53.2218 94.9427 52.0725 94.9427 50.6548C94.9427 49.2371 96.0957 48.0878 97.518 48.0878C98.9403 48.0878 100.093 49.2371 100.093 50.6548C100.093 52.0725 98.9403 53.2218 97.518 53.2218Z" fill="white"></path>
    <path d="M97.518 66.9122C96.0957 66.9122 94.9427 65.763 94.9427 64.3453C94.9427 62.9276 96.0957 61.7783 97.518 61.7783C98.9403 61.7783 100.093 62.9276 100.093 64.3453C100.093 65.763 98.9403 66.9122 97.518 66.9122Z" fill="white"></path>
    <path d="M90.6506 73.7575C89.2283 73.7575 88.0753 72.6082 88.0753 71.1905C88.0753 69.7728 89.2283 68.6235 90.6506 68.6235C92.0729 68.6235 93.2259 69.7728 93.2259 71.1905C93.2259 72.6082 92.0729 73.7575 90.6506 73.7575Z" fill="white"></path>
    <path d="M83.7831 80.6027C82.3608 80.6027 81.2078 79.4534 81.2078 78.0357C81.2078 76.618 82.3608 75.4688 83.7831 75.4688C85.2054 75.4688 86.3584 76.618 86.3584 78.0357C86.3584 79.4534 85.2054 80.6027 83.7831 80.6027Z" fill="white"></path>
    <path d="M76.9156 87.4479C75.4933 87.4479 74.3403 86.2986 74.3403 84.8809C74.3403 83.4632 75.4933 82.314 76.9156 82.314C78.3379 82.314 79.4909 83.4632 79.4909 84.8809C79.4909 86.2986 78.3379 87.4479 76.9156 87.4479Z" fill="white"></path>
    <path d="M70.0482 94.2931C68.6259 94.2931 67.4729 93.1438 67.4729 91.7261C67.4729 90.3084 68.6259 89.1592 70.0482 89.1592C71.4705 89.1592 72.6235 90.3084 72.6235 91.7261C72.6235 93.1438 71.4705 94.2931 70.0482 94.2931Z" fill="white"></path>
    <path d="M63.1807 101.138C61.7584 101.138 60.6054 99.9892 60.6054 98.5715C60.6054 97.1538 61.7584 96.0045 63.1807 96.0045C64.603 96.0045 65.756 97.1538 65.756 98.5715C65.756 99.9892 64.603 101.138 63.1807 101.138Z" fill="white"></path>
    <path d="M56.3132 107.984C54.8909 107.984 53.7379 106.834 53.7379 105.417C53.7379 103.999 54.8909 102.85 56.3132 102.85C57.7355 102.85 58.8885 103.999 58.8885 105.417C58.8885 106.834 57.7355 107.984 56.3132 107.984Z" fill="white"></path>
    <path d="M49.4458 114.829C48.0235 114.829 46.8705 113.68 46.8705 112.262C46.8705 110.844 48.0235 109.695 49.4458 109.695C50.8681 109.695 52.0211 110.844 52.0211 112.262C52.0211 113.68 50.8681 114.829 49.4458 114.829Z" fill="white"></path>
    <path d="M90.6506 46.3765C89.2283 46.3765 88.0753 45.2272 88.0753 43.8095C88.0753 42.3918 89.2283 41.2426 90.6506 41.2426C92.0729 41.2426 93.2259 42.3918 93.2259 43.8095C93.2259 45.2272 92.0729 46.3765 90.6506 46.3765Z" fill="white"></path>
    <path d="M83.7831 39.5313C82.3608 39.5313 81.2078 38.382 81.2078 36.9643C81.2078 35.5466 82.3608 34.3973 83.7831 34.3973C85.2054 34.3973 86.3584 35.5466 86.3584 36.9643C86.3584 38.382 85.2054 39.5313 83.7831 39.5313Z" fill="white"></path>
    <path d="M76.9156 32.6861C75.4933 32.6861 74.3403 31.5368 74.3403 30.1191C74.3403 28.7014 75.4933 27.5521 76.9156 27.5521C78.3379 27.5521 79.4909 28.7014 79.4909 30.1191C79.4909 31.5368 78.3379 32.6861 76.9156 32.6861Z" fill="white"></path>
    <path d="M70.0482 25.8408C68.6259 25.8408 67.4729 24.6915 67.4729 23.2738C67.4729 21.8561 68.6259 20.7068 70.0482 20.7068C71.4705 20.7068 72.6235 21.8561 72.6235 23.2738C72.6235 24.6915 71.4705 25.8408 70.0482 25.8408Z" fill="white"></path>
    <path d="M63.1807 18.9956C61.7584 18.9956 60.6054 17.8463 60.6054 16.4286C60.6054 15.0109 61.7584 13.8616 63.1807 13.8616C64.603 13.8616 65.756 15.0109 65.756 16.4286C65.756 17.8463 64.603 18.9956 63.1807 18.9956Z" fill="white"></path>
    <path d="M56.3132 12.1503C54.8909 12.1503 53.7379 11.001 53.7379 9.58332C53.7379 8.16563 54.8909 7.01636 56.3132 7.01636C57.7355 7.01636 58.8885 8.16563 58.8885 9.58332C58.8885 11.001 57.7355 12.1503 56.3132 12.1503Z" fill="white"></path>
    <path d="M49.4458 5.30507C48.0235 5.30507 46.8705 4.1558 46.8705 2.73811C46.8705 1.32041 48.0235 0.171143 49.4458 0.171143C50.8681 0.171143 52.0211 1.32041 52.0211 2.73811C52.0211 4.1558 50.8681 5.30507 49.4458 5.30507Z" fill="white"></path>
    <path d="M97.5181 59.8959C96.1906 59.8959 95.1145 58.8232 95.1145 57.5C95.1145 56.1768 96.1906 55.1042 97.5181 55.1042C98.8456 55.1042 99.9217 56.1768 99.9217 57.5C99.9217 58.8232 98.8456 59.8959 97.5181 59.8959Z" fill="white"></path>
    <path d="M90.6506 53.0506C89.3231 53.0506 88.247 51.978 88.247 50.6548C88.247 49.3316 89.3231 48.259 90.6506 48.259C91.9781 48.259 93.0542 49.3316 93.0542 50.6548C93.0542 51.978 91.9781 53.0506 90.6506 53.0506Z" fill="white"></path>
    <path d="M90.6506 66.7411C89.3231 66.7411 88.247 65.6685 88.247 64.3453C88.247 63.0221 89.3231 61.9495 90.6506 61.9495C91.9781 61.9495 93.0542 63.0221 93.0542 64.3453C93.0542 65.6685 91.9781 66.7411 90.6506 66.7411Z" fill="white"></path>
    <path d="M83.7831 73.5863C82.4556 73.5863 81.3795 72.5137 81.3795 71.1905C81.3795 69.8673 82.4556 68.7947 83.7831 68.7947C85.1106 68.7947 86.1867 69.8673 86.1867 71.1905C86.1867 72.5137 85.1106 73.5863 83.7831 73.5863Z" fill="white"></path>
    <path d="M76.9157 80.4316C75.5882 80.4316 74.512 79.3589 74.512 78.0357C74.512 76.7125 75.5882 75.6399 76.9157 75.6399C78.2431 75.6399 79.3193 76.7125 79.3193 78.0357C79.3193 79.3589 78.2431 80.4316 76.9157 80.4316Z" fill="white"></path>
    <path d="M70.0482 87.2768C68.7207 87.2768 67.6446 86.2041 67.6446 84.8809C67.6446 83.5578 68.7207 82.4851 70.0482 82.4851C71.3757 82.4851 72.4518 83.5578 72.4518 84.8809C72.4518 86.2041 71.3757 87.2768 70.0482 87.2768Z" fill="white"></path>
    <path d="M63.1807 94.122C61.8533 94.122 60.7771 93.0493 60.7771 91.7262C60.7771 90.403 61.8533 89.3303 63.1807 89.3303C64.5082 89.3303 65.5844 90.403 65.5844 91.7262C65.5844 93.0493 64.5082 94.122 63.1807 94.122Z" fill="white"></path>
    <path d="M56.3132 100.967C54.9858 100.967 53.9096 99.8947 53.9096 98.5715C53.9096 97.2483 54.9858 96.1757 56.3132 96.1757C57.6407 96.1757 58.7169 97.2483 58.7169 98.5715C58.7169 99.8947 57.6407 100.967 56.3132 100.967Z" fill="white"></path>
    <path d="M49.4458 107.813C48.1183 107.813 47.0422 106.74 47.0422 105.417C47.0422 104.094 48.1183 103.021 49.4458 103.021C50.7733 103.021 51.8494 104.094 51.8494 105.417C51.8494 106.74 50.7733 107.813 49.4458 107.813Z" fill="white"></path>
    <path d="M42.5783 114.658C41.2508 114.658 40.1747 113.585 40.1747 112.262C40.1747 110.939 41.2508 109.866 42.5783 109.866C43.9058 109.866 44.9819 110.939 44.9819 112.262C44.9819 113.585 43.9058 114.658 42.5783 114.658Z" fill="white"></path>
    <path d="M83.7831 46.2054C82.4556 46.2054 81.3795 45.1327 81.3795 43.8095C81.3795 42.4863 82.4556 41.4137 83.7831 41.4137C85.1106 41.4137 86.1867 42.4863 86.1867 43.8095C86.1867 45.1327 85.1106 46.2054 83.7831 46.2054Z" fill="white"></path>
    <path d="M76.9157 39.3601C75.5882 39.3601 74.512 38.2875 74.512 36.9643C74.512 35.6411 75.5882 34.5685 76.9157 34.5685C78.2431 34.5685 79.3193 35.6411 79.3193 36.9643C79.3193 38.2875 78.2431 39.3601 76.9157 39.3601Z" fill="white"></path>
    <path d="M70.0482 32.5149C68.7207 32.5149 67.6446 31.4423 67.6446 30.1191C67.6446 28.7959 68.7207 27.7233 70.0482 27.7233C71.3757 27.7233 72.4518 28.7959 72.4518 30.1191C72.4518 31.4423 71.3757 32.5149 70.0482 32.5149Z" fill="white"></path>
    <path d="M63.1807 25.6697C61.8533 25.6697 60.7771 24.597 60.7771 23.2738C60.7771 21.9506 61.8533 20.878 63.1807 20.878C64.5082 20.878 65.5844 21.9506 65.5844 23.2738C65.5844 24.597 64.5082 25.6697 63.1807 25.6697Z" fill="white"></path>
    <path d="M56.3132 18.8244C54.9858 18.8244 53.9096 17.7518 53.9096 16.4286C53.9096 15.1054 54.9858 14.0328 56.3132 14.0328C57.6407 14.0328 58.7169 15.1054 58.7169 16.4286C58.7169 17.7518 57.6407 18.8244 56.3132 18.8244Z" fill="white"></path>
    <path d="M49.4458 11.9792C48.1183 11.9792 47.0422 10.9065 47.0422 9.58333C47.0422 8.26015 48.1183 7.1875 49.4458 7.1875C50.7733 7.1875 51.8494 8.26015 51.8494 9.58333C51.8494 10.9065 50.7733 11.9792 49.4458 11.9792Z" fill="white"></path>
    <path d="M42.5783 5.13395C41.2508 5.13395 40.1747 4.0613 40.1747 2.73812C40.1747 1.41494 41.2508 0.342285 42.5783 0.342285C43.9058 0.342285 44.9819 1.41494 44.9819 2.73812C44.9819 4.0613 43.9058 5.13395 42.5783 5.13395Z" fill="white"></path>
    <path d="M90.6506 59.7247C89.4179 59.7247 88.4187 58.7286 88.4187 57.5C88.4187 56.2713 89.4179 55.2753 90.6506 55.2753C91.8832 55.2753 92.8825 56.2713 92.8825 57.5C92.8825 58.7286 91.8832 59.7247 90.6506 59.7247Z" fill="white"></path>
    <path d="M83.7831 52.8795C82.5505 52.8795 81.5512 51.8834 81.5512 50.6548C81.5512 49.4261 82.5505 48.4301 83.7831 48.4301C85.0158 48.4301 86.015 49.4261 86.015 50.6548C86.015 51.8834 85.0158 52.8795 83.7831 52.8795Z" fill="white"></path>
    <path d="M83.7831 66.5699C82.5505 66.5699 81.5512 65.5739 81.5512 64.3452C81.5512 63.1165 82.5505 62.1205 83.7831 62.1205C85.0158 62.1205 86.015 63.1165 86.015 64.3452C86.015 65.5739 85.0158 66.5699 83.7831 66.5699Z" fill="white"></path>
    <path d="M76.9157 73.4152C75.683 73.4152 74.6837 72.4191 74.6837 71.1905C74.6837 69.9618 75.683 68.9658 76.9157 68.9658C78.1483 68.9658 79.1476 69.9618 79.1476 71.1905C79.1476 72.4191 78.1483 73.4152 76.9157 73.4152Z" fill="white"></path>
    <path d="M70.0482 80.2604C68.8155 80.2604 67.8162 79.2643 67.8162 78.0357C67.8162 76.807 68.8155 75.811 70.0482 75.811C71.2808 75.811 72.2801 76.807 72.2801 78.0357C72.2801 79.2643 71.2808 80.2604 70.0482 80.2604Z" fill="white"></path>
    <path d="M63.1807 87.1057C61.948 87.1057 60.9488 86.1096 60.9488 84.881C60.9488 83.6523 61.948 82.6562 63.1807 82.6562C64.4134 82.6562 65.4126 83.6523 65.4126 84.881C65.4126 86.1096 64.4134 87.1057 63.1807 87.1057Z" fill="white"></path>
    <path d="M56.3132 93.9509C55.0806 93.9509 54.0813 92.9548 54.0813 91.7262C54.0813 90.4975 55.0806 89.5015 56.3132 89.5015C57.5459 89.5015 58.5452 90.4975 58.5452 91.7262C58.5452 92.9548 57.5459 93.9509 56.3132 93.9509Z" fill="white"></path>
    <path d="M49.4457 100.796C48.2131 100.796 47.2138 99.8001 47.2138 98.5714C47.2138 97.3427 48.2131 96.3467 49.4457 96.3467C50.6784 96.3467 51.6777 97.3427 51.6777 98.5714C51.6777 99.8001 50.6784 100.796 49.4457 100.796Z" fill="white"></path>
    <path d="M42.5783 107.641C41.3456 107.641 40.3464 106.645 40.3464 105.417C40.3464 104.188 41.3456 103.192 42.5783 103.192C43.8109 103.192 44.8102 104.188 44.8102 105.417C44.8102 106.645 43.8109 107.641 42.5783 107.641Z" fill="white"></path>
    <path d="M35.7108 114.487C34.4782 114.487 33.4789 113.491 33.4789 112.262C33.4789 111.033 34.4782 110.037 35.7108 110.037C36.9435 110.037 37.9427 111.033 37.9427 112.262C37.9427 113.491 36.9435 114.487 35.7108 114.487Z" fill="white"></path>
    <path d="M76.9157 46.0342C75.683 46.0342 74.6837 45.0381 74.6837 43.8095C74.6837 42.5808 75.683 41.5848 76.9157 41.5848C78.1483 41.5848 79.1476 42.5808 79.1476 43.8095C79.1476 45.0381 78.1483 46.0342 76.9157 46.0342Z" fill="white"></path>
    <path d="M70.0482 39.189C68.8155 39.189 67.8162 38.1929 67.8162 36.9643C67.8162 35.7356 68.8155 34.7396 70.0482 34.7396C71.2808 34.7396 72.2801 35.7356 72.2801 36.9643C72.2801 38.1929 71.2808 39.189 70.0482 39.189Z" fill="white"></path>
    <path d="M63.1807 32.3438C61.948 32.3438 60.9488 31.3477 60.9488 30.1191C60.9488 28.8904 61.948 27.8943 63.1807 27.8943C64.4134 27.8943 65.4126 28.8904 65.4126 30.1191C65.4126 31.3477 64.4134 32.3438 63.1807 32.3438Z" fill="white"></path>
    <path d="M56.3132 25.4985C55.0806 25.4985 54.0813 24.5024 54.0813 23.2738C54.0813 22.0451 55.0806 21.0491 56.3132 21.0491C57.5459 21.0491 58.5452 22.0451 58.5452 23.2738C58.5452 24.5024 57.5459 25.4985 56.3132 25.4985Z" fill="white"></path>
    <path d="M49.4457 18.6533C48.2131 18.6533 47.2138 17.6572 47.2138 16.4286C47.2138 15.1999 48.2131 14.2039 49.4457 14.2039C50.6784 14.2039 51.6777 15.1999 51.6777 16.4286C51.6777 17.6572 50.6784 18.6533 49.4457 18.6533Z" fill="white"></path>
    <path d="M42.5783 11.808C41.3456 11.808 40.3464 10.812 40.3464 9.58328C40.3464 8.35461 41.3456 7.35858 42.5783 7.35858C43.8109 7.35858 44.8102 8.35461 44.8102 9.58328C44.8102 10.812 43.8109 11.808 42.5783 11.808Z" fill="white"></path>
    <path d="M35.7108 4.96277C34.4782 4.96277 33.4789 3.96674 33.4789 2.73807C33.4789 1.5094 34.4782 0.513367 35.7108 0.513367C36.9435 0.513367 37.9427 1.5094 37.9427 2.73807C37.9427 3.96674 36.9435 4.96277 35.7108 4.96277Z" fill="white"></path>
    <path d="M83.7831 59.5536C82.6453 59.5536 81.7229 58.6341 81.7229 57.5C81.7229 56.3658 82.6453 55.4464 83.7831 55.4464C84.921 55.4464 85.8434 56.3658 85.8434 57.5C85.8434 58.6341 84.921 59.5536 83.7831 59.5536Z" fill="white"></path>
    <path d="M76.9157 52.7083C75.7778 52.7083 74.8554 51.7889 74.8554 50.6548C74.8554 49.5206 75.7778 48.6012 76.9157 48.6012C78.0535 48.6012 78.9759 49.5206 78.9759 50.6548C78.9759 51.7889 78.0535 52.7083 76.9157 52.7083Z" fill="white"></path>
    <path d="M76.9157 66.3988C75.7778 66.3988 74.8554 65.4794 74.8554 64.3452C74.8554 63.211 75.7778 62.2916 76.9157 62.2916C78.0535 62.2916 78.9759 63.211 78.9759 64.3452C78.9759 65.4794 78.0535 66.3988 76.9157 66.3988Z" fill="white"></path>
    <path d="M70.0482 73.244C68.9103 73.244 67.9879 72.3246 67.9879 71.1905C67.9879 70.0563 68.9103 69.1369 70.0482 69.1369C71.186 69.1369 72.1084 70.0563 72.1084 71.1905C72.1084 72.3246 71.186 73.244 70.0482 73.244Z" fill="white"></path>
    <path d="M63.1807 80.0893C62.0429 80.0893 61.1205 79.1698 61.1205 78.0357C61.1205 76.9015 62.0429 75.9821 63.1807 75.9821C64.3186 75.9821 65.241 76.9015 65.241 78.0357C65.241 79.1698 64.3186 80.0893 63.1807 80.0893Z" fill="white"></path>
    <path d="M56.3133 86.9345C55.1754 86.9345 54.253 86.0151 54.253 84.881C54.253 83.7468 55.1754 82.8274 56.3133 82.8274C57.4511 82.8274 58.3735 83.7468 58.3735 84.881C58.3735 86.0151 57.4511 86.9345 56.3133 86.9345Z" fill="white"></path>
    <path d="M49.4458 93.7798C48.308 93.7798 47.3856 92.8603 47.3856 91.7262C47.3856 90.592 48.308 89.6726 49.4458 89.6726C50.5836 89.6726 51.506 90.592 51.506 91.7262C51.506 92.8603 50.5836 93.7798 49.4458 93.7798Z" fill="white"></path>
    <path d="M42.5783 100.625C41.4405 100.625 40.5181 99.7055 40.5181 98.5714C40.5181 97.4372 41.4405 96.5178 42.5783 96.5178C43.7161 96.5178 44.6385 97.4372 44.6385 98.5714C44.6385 99.7055 43.7161 100.625 42.5783 100.625Z" fill="white"></path>
    <path d="M35.7108 107.47C34.573 107.47 33.6506 106.551 33.6506 105.417C33.6506 104.282 34.573 103.363 35.7108 103.363C36.8487 103.363 37.7711 104.282 37.7711 105.417C37.7711 106.551 36.8487 107.47 35.7108 107.47Z" fill="white"></path>
    <path d="M28.8434 114.316C27.7055 114.316 26.7831 113.396 26.7831 112.262C26.7831 111.128 27.7055 110.208 28.8434 110.208C29.9812 110.208 30.9036 111.128 30.9036 112.262C30.9036 113.396 29.9812 114.316 28.8434 114.316Z" fill="white"></path>
    <path d="M70.0482 45.8631C68.9103 45.8631 67.9879 44.9436 67.9879 43.8095C67.9879 42.6753 68.9103 41.7559 70.0482 41.7559C71.186 41.7559 72.1084 42.6753 72.1084 43.8095C72.1084 44.9436 71.186 45.8631 70.0482 45.8631Z" fill="white"></path>
    <path d="M63.1807 39.0178C62.0429 39.0178 61.1205 38.0984 61.1205 36.9643C61.1205 35.8301 62.0429 34.9107 63.1807 34.9107C64.3186 34.9107 65.241 35.8301 65.241 36.9643C65.241 38.0984 64.3186 39.0178 63.1807 39.0178Z" fill="white"></path>
    <path d="M56.3133 32.1726C55.1754 32.1726 54.253 31.2532 54.253 30.1191C54.253 28.9849 55.1754 28.0655 56.3133 28.0655C57.4511 28.0655 58.3735 28.9849 58.3735 30.1191C58.3735 31.2532 57.4511 32.1726 56.3133 32.1726Z" fill="white"></path>
    <path d="M49.4458 25.3274C48.308 25.3274 47.3856 24.4079 47.3856 23.2738C47.3856 22.1396 48.308 21.2202 49.4458 21.2202C50.5836 21.2202 51.506 22.1396 51.506 23.2738C51.506 24.4079 50.5836 25.3274 49.4458 25.3274Z" fill="white"></path>
    <path d="M42.5783 18.4821C41.4405 18.4821 40.5181 17.5627 40.5181 16.4286C40.5181 15.2944 41.4405 14.375 42.5783 14.375C43.7161 14.375 44.6385 15.2944 44.6385 16.4286C44.6385 17.5627 43.7161 18.4821 42.5783 18.4821Z" fill="white"></path>
    <path d="M35.7108 11.6369C34.573 11.6369 33.6506 10.7175 33.6506 9.5833C33.6506 8.44914 34.573 7.52972 35.7108 7.52972C36.8487 7.52972 37.7711 8.44914 37.7711 9.5833C37.7711 10.7175 36.8487 11.6369 35.7108 11.6369Z" fill="white"></path>
    <path d="M28.8434 4.79165C27.7055 4.79165 26.7831 3.87224 26.7831 2.73808C26.7831 1.60392 27.7055 0.684509 28.8434 0.684509C29.9812 0.684509 30.9036 1.60392 30.9036 2.73808C30.9036 3.87224 29.9812 4.79165 28.8434 4.79165Z" fill="white"></path>
    <path d="M56.3132 58.869C55.5547 58.869 54.9397 58.2561 54.9397 57.5C54.9397 56.7439 55.5547 56.1309 56.3132 56.1309C57.0718 56.1309 57.6867 56.7439 57.6867 57.5C57.6867 58.2561 57.0718 58.869 56.3132 58.869Z" fill="white"></path>
    <path d="M49.4458 52.0238C48.6872 52.0238 48.0723 51.4109 48.0723 50.6548C48.0723 49.8986 48.6872 49.2857 49.4458 49.2857C50.2043 49.2857 50.8193 49.8986 50.8193 50.6548C50.8193 51.4109 50.2043 52.0238 49.4458 52.0238Z" fill="white"></path>
    <path d="M49.4458 65.7143C48.6872 65.7143 48.0723 65.1013 48.0723 64.3452C48.0723 63.5891 48.6872 62.9762 49.4458 62.9762C50.2043 62.9762 50.8193 63.5891 50.8193 64.3452C50.8193 65.1013 50.2043 65.7143 49.4458 65.7143Z" fill="white"></path>
    <path d="M42.5783 72.5595C41.8197 72.5595 41.2048 71.9466 41.2048 71.1905C41.2048 70.4344 41.8197 69.8214 42.5783 69.8214C43.3368 69.8214 43.9518 70.4344 43.9518 71.1905C43.9518 71.9466 43.3368 72.5595 42.5783 72.5595Z" fill="white"></path>
    <path d="M35.7108 79.4047C34.9523 79.4047 34.3373 78.7918 34.3373 78.0357C34.3373 77.2796 34.9523 76.6666 35.7108 76.6666C36.4694 76.6666 37.0843 77.2796 37.0843 78.0357C37.0843 78.7918 36.4694 79.4047 35.7108 79.4047Z" fill="white"></path>
    <path d="M28.8434 86.2499C28.0848 86.2499 27.4699 85.637 27.4699 84.8809C27.4699 84.1248 28.0848 83.5118 28.8434 83.5118C29.6019 83.5118 30.2169 84.1248 30.2169 84.8809C30.2169 85.637 29.6019 86.2499 28.8434 86.2499Z" fill="white"></path>
    <path d="M21.9759 93.0953C21.2173 93.0953 20.6024 92.4823 20.6024 91.7262C20.6024 90.9701 21.2173 90.3572 21.9759 90.3572C22.7345 90.3572 23.3494 90.9701 23.3494 91.7262C23.3494 92.4823 22.7345 93.0953 21.9759 93.0953Z" fill="white"></path>
    <path d="M15.1084 99.9405C14.3498 99.9405 13.7349 99.3275 13.7349 98.5714C13.7349 97.8153 14.3498 97.2024 15.1084 97.2024C15.867 97.2024 16.4819 97.8153 16.4819 98.5714C16.4819 99.3275 15.867 99.9405 15.1084 99.9405Z" fill="white"></path>
    <path d="M8.24095 106.786C7.48239 106.786 6.86745 106.173 6.86745 105.417C6.86745 104.661 7.48239 104.048 8.24095 104.048C8.99951 104.048 9.61444 104.661 9.61444 105.417C9.61444 106.173 8.99951 106.786 8.24095 106.786Z" fill="white"></path>
    <path d="M1.37348 113.631C0.614925 113.631 -9.53674e-06 113.018 -9.53674e-06 112.262C-9.53674e-06 111.506 0.614925 110.893 1.37348 110.893C2.13204 110.893 2.74698 111.506 2.74698 112.262C2.74698 113.018 2.13204 113.631 1.37348 113.631Z" fill="white"></path>
    <path d="M42.5783 45.1785C41.8197 45.1785 41.2048 44.5656 41.2048 43.8095C41.2048 43.0534 41.8197 42.4404 42.5783 42.4404C43.3368 42.4404 43.9518 43.0534 43.9518 43.8095C43.9518 44.5656 43.3368 45.1785 42.5783 45.1785Z" fill="white"></path>
    <path d="M35.7108 38.3333C34.9523 38.3333 34.3373 37.7204 34.3373 36.9643C34.3373 36.2082 34.9523 35.5952 35.7108 35.5952C36.4694 35.5952 37.0843 36.2082 37.0843 36.9643C37.0843 37.7204 36.4694 38.3333 35.7108 38.3333Z" fill="white"></path>
    <path d="M28.8434 31.4881C28.0848 31.4881 27.4699 30.8752 27.4699 30.119C27.4699 29.3629 28.0848 28.75 28.8434 28.75C29.6019 28.75 30.2169 29.3629 30.2169 30.119C30.2169 30.8752 29.6019 31.4881 28.8434 31.4881Z" fill="white"></path>
    <path d="M21.9759 24.6428C21.2173 24.6428 20.6024 24.0299 20.6024 23.2738C20.6024 22.5177 21.2173 21.9047 21.9759 21.9047C22.7345 21.9047 23.3494 22.5177 23.3494 23.2738C23.3494 24.0299 22.7345 24.6428 21.9759 24.6428Z" fill="white"></path>
    <path d="M15.1084 17.7976C14.3498 17.7976 13.7349 17.1847 13.7349 16.4286C13.7349 15.6725 14.3498 15.0595 15.1084 15.0595C15.867 15.0595 16.4819 15.6725 16.4819 16.4286C16.4819 17.1847 15.867 17.7976 15.1084 17.7976Z" fill="white"></path>
    <path d="M8.24095 10.9523C7.48239 10.9523 6.86745 10.3394 6.86745 9.58328C6.86745 8.82718 7.48239 8.21423 8.24095 8.21423C8.99951 8.21423 9.61444 8.82718 9.61444 9.58328C9.61444 10.3394 8.99951 10.9523 8.24095 10.9523Z" fill="white"></path>
    <path d="M1.37348 4.10711C0.614925 4.10711 -9.53674e-06 3.49417 -9.53674e-06 2.73807C-9.53674e-06 1.98196 0.614925 1.36902 1.37348 1.36902C2.13204 1.36902 2.74698 1.98196 2.74698 2.73807C2.74698 3.49417 2.13204 4.10711 1.37348 4.10711Z" fill="white"></path>
    <path d="M76.9156 59.3824C75.8726 59.3824 75.0271 58.5396 75.0271 57.5C75.0271 56.4604 75.8726 55.6176 76.9156 55.6176C77.9587 55.6176 78.8042 56.4604 78.8042 57.5C78.8042 58.5396 77.9587 59.3824 76.9156 59.3824Z" fill="white"></path>
    <path d="M70.0482 52.5372C69.0052 52.5372 68.1596 51.6944 68.1596 50.6548C68.1596 49.6151 69.0052 48.7723 70.0482 48.7723C71.0912 48.7723 71.9367 49.6151 71.9367 50.6548C71.9367 51.6944 71.0912 52.5372 70.0482 52.5372Z" fill="white"></path>
    <path d="M70.0482 66.2276C69.0052 66.2276 68.1596 65.3849 68.1596 64.3452C68.1596 63.3056 69.0052 62.4628 70.0482 62.4628C71.0912 62.4628 71.9367 63.3056 71.9367 64.3452C71.9367 65.3849 71.0912 66.2276 70.0482 66.2276Z" fill="white"></path>
    <path d="M63.1807 73.0729C62.1377 73.0729 61.2922 72.2301 61.2922 71.1905C61.2922 70.1508 62.1377 69.308 63.1807 69.308C64.2237 69.308 65.0693 70.1508 65.0693 71.1905C65.0693 72.2301 64.2237 73.0729 63.1807 73.0729Z" fill="white"></path>
    <path d="M56.3132 79.9181C55.2702 79.9181 54.4247 79.0753 54.4247 78.0357C54.4247 76.9961 55.2702 76.1533 56.3132 76.1533C57.3562 76.1533 58.2018 76.9961 58.2018 78.0357C58.2018 79.0753 57.3562 79.9181 56.3132 79.9181Z" fill="white"></path>
    <path d="M49.4458 86.7634C48.4027 86.7634 47.5572 85.9206 47.5572 84.881C47.5572 83.8413 48.4027 82.9985 49.4458 82.9985C50.4888 82.9985 51.3343 83.8413 51.3343 84.881C51.3343 85.9206 50.4888 86.7634 49.4458 86.7634Z" fill="white"></path>
    <path d="M42.5783 93.6086C41.5353 93.6086 40.6897 92.7658 40.6897 91.7262C40.6897 90.6865 41.5353 89.8438 42.5783 89.8438C43.6213 89.8438 44.4669 90.6865 44.4669 91.7262C44.4669 92.7658 43.6213 93.6086 42.5783 93.6086Z" fill="white"></path>
    <path d="M35.7108 100.454C34.6678 100.454 33.8223 99.611 33.8223 98.5714C33.8223 97.5318 34.6678 96.689 35.7108 96.689C36.7538 96.689 37.5994 97.5318 37.5994 98.5714C37.5994 99.611 36.7538 100.454 35.7108 100.454Z" fill="white"></path>
    <path d="M28.8433 107.299C27.8003 107.299 26.9548 106.456 26.9548 105.417C26.9548 104.377 27.8003 103.534 28.8433 103.534C29.8864 103.534 30.7319 104.377 30.7319 105.417C30.7319 106.456 29.8864 107.299 28.8433 107.299Z" fill="white"></path>
    <path d="M21.9759 114.144C20.9329 114.144 20.0873 113.302 20.0873 112.262C20.0873 111.222 20.9329 110.38 21.9759 110.38C23.0189 110.38 23.8644 111.222 23.8644 112.262C23.8644 113.302 23.0189 114.144 21.9759 114.144Z" fill="white"></path>
    <path d="M63.1807 45.6919C62.1377 45.6919 61.2922 44.8491 61.2922 43.8095C61.2922 42.7699 62.1377 41.9271 63.1807 41.9271C64.2237 41.9271 65.0693 42.7699 65.0693 43.8095C65.0693 44.8491 64.2237 45.6919 63.1807 45.6919Z" fill="white"></path>
    <path d="M56.3132 38.8467C55.2702 38.8467 54.4247 38.0039 54.4247 36.9643C54.4247 35.9246 55.2702 35.0818 56.3132 35.0818C57.3562 35.0818 58.2018 35.9246 58.2018 36.9643C58.2018 38.0039 57.3562 38.8467 56.3132 38.8467Z" fill="white"></path>
    <path d="M49.4458 32.0015C48.4027 32.0015 47.5572 31.1587 47.5572 30.1191C47.5572 29.0794 48.4027 28.2366 49.4458 28.2366C50.4888 28.2366 51.3343 29.0794 51.3343 30.1191C51.3343 31.1587 50.4888 32.0015 49.4458 32.0015Z" fill="white"></path>
    <path d="M42.5783 25.1562C41.5353 25.1562 40.6897 24.3134 40.6897 23.2738C40.6897 22.2342 41.5353 21.3914 42.5783 21.3914C43.6213 21.3914 44.4669 22.2342 44.4669 23.2738C44.4669 24.3134 43.6213 25.1562 42.5783 25.1562Z" fill="white"></path>
    <path d="M35.7108 18.311C34.6678 18.311 33.8223 17.4682 33.8223 16.4286C33.8223 15.3889 34.6678 14.5461 35.7108 14.5461C36.7538 14.5461 37.5994 15.3889 37.5994 16.4286C37.5994 17.4682 36.7538 18.311 35.7108 18.311Z" fill="white"></path>
    <path d="M28.8433 11.4657C27.8003 11.4657 26.9548 10.623 26.9548 9.58331C26.9548 8.54366 27.8003 7.70087 28.8433 7.70087C29.8864 7.70087 30.7319 8.54366 30.7319 9.58331C30.7319 10.623 29.8864 11.4657 28.8433 11.4657Z" fill="white"></path>
    <path d="M21.9759 4.62053C20.9329 4.62053 20.0873 3.77774 20.0873 2.73809C20.0873 1.69845 20.9329 0.855652 21.9759 0.855652C23.0189 0.855652 23.8644 1.69845 23.8644 2.73809C23.8644 3.77774 23.0189 4.62053 21.9759 4.62053Z" fill="white"></path>
    <path d="M70.0482 59.2113C69.1 59.2113 68.3313 58.4451 68.3313 57.5C68.3313 56.5549 69.1 55.7887 70.0482 55.7887C70.9964 55.7887 71.765 56.5549 71.765 57.5C71.765 58.4451 70.9964 59.2113 70.0482 59.2113Z" fill="white"></path>
    <path d="M63.1807 52.3661C62.2325 52.3661 61.4638 51.5999 61.4638 50.6548C61.4638 49.7097 62.2325 48.9435 63.1807 48.9435C64.1289 48.9435 64.8976 49.7097 64.8976 50.6548C64.8976 51.5999 64.1289 52.3661 63.1807 52.3661Z" fill="white"></path>
    <path d="M63.1807 66.0565C62.2325 66.0565 61.4638 65.2904 61.4638 64.3452C61.4638 63.4001 62.2325 62.6339 63.1807 62.6339C64.1289 62.6339 64.8976 63.4001 64.8976 64.3452C64.8976 65.2904 64.1289 66.0565 63.1807 66.0565Z" fill="white"></path>
    <path d="M56.3133 72.9018C55.3651 72.9018 54.5964 72.1356 54.5964 71.1905C54.5964 70.2454 55.3651 69.4792 56.3133 69.4792C57.2615 69.4792 58.0301 70.2454 58.0301 71.1905C58.0301 72.1356 57.2615 72.9018 56.3133 72.9018Z" fill="white"></path>
    <path d="M49.4458 79.747C48.4976 79.747 47.7289 78.9808 47.7289 78.0357C47.7289 77.0906 48.4976 76.3244 49.4458 76.3244C50.394 76.3244 51.1626 77.0906 51.1626 78.0357C51.1626 78.9808 50.394 79.747 49.4458 79.747Z" fill="white"></path>
    <path d="M42.5783 86.5923C41.6301 86.5923 40.8614 85.8261 40.8614 84.881C40.8614 83.9359 41.6301 83.1697 42.5783 83.1697C43.5265 83.1697 44.2952 83.9359 44.2952 84.881C44.2952 85.8261 43.5265 86.5923 42.5783 86.5923Z" fill="white"></path>
    <path d="M35.7108 93.4375C34.7626 93.4375 33.994 92.6713 33.994 91.7262C33.994 90.7811 34.7626 90.0149 35.7108 90.0149C36.659 90.0149 37.4277 90.7811 37.4277 91.7262C37.4277 92.6713 36.659 93.4375 35.7108 93.4375Z" fill="white"></path>
    <path d="M28.8434 100.283C27.8952 100.283 27.1265 99.5165 27.1265 98.5714C27.1265 97.6263 27.8952 96.8601 28.8434 96.8601C29.7916 96.8601 30.5602 97.6263 30.5602 98.5714C30.5602 99.5165 29.7916 100.283 28.8434 100.283Z" fill="white"></path>
    <path d="M21.9759 107.128C21.0277 107.128 20.259 106.362 20.259 105.417C20.259 104.472 21.0277 103.705 21.9759 103.705C22.9241 103.705 23.6927 104.472 23.6927 105.417C23.6927 106.362 22.9241 107.128 21.9759 107.128Z" fill="white"></path>
    <path d="M15.1084 113.973C14.1602 113.973 13.3916 113.207 13.3916 112.262C13.3916 111.317 14.1602 110.551 15.1084 110.551C16.0566 110.551 16.8253 111.317 16.8253 112.262C16.8253 113.207 16.0566 113.973 15.1084 113.973Z" fill="white"></path>
    <path d="M56.3133 45.5208C55.3651 45.5208 54.5964 44.7546 54.5964 43.8095C54.5964 42.8644 55.3651 42.0982 56.3133 42.0982C57.2615 42.0982 58.0301 42.8644 58.0301 43.8095C58.0301 44.7546 57.2615 45.5208 56.3133 45.5208Z" fill="white"></path>
    <path d="M49.4458 38.6756C48.4976 38.6756 47.7289 37.9094 47.7289 36.9643C47.7289 36.0192 48.4976 35.253 49.4458 35.253C50.394 35.253 51.1626 36.0192 51.1626 36.9643C51.1626 37.9094 50.394 38.6756 49.4458 38.6756Z" fill="white"></path>
    <path d="M42.5783 31.8304C41.6301 31.8304 40.8614 31.0642 40.8614 30.1191C40.8614 29.174 41.6301 28.4078 42.5783 28.4078C43.5265 28.4078 44.2952 29.174 44.2952 30.1191C44.2952 31.0642 43.5265 31.8304 42.5783 31.8304Z" fill="white"></path>
    <path d="M35.7108 24.9851C34.7626 24.9851 33.994 24.2189 33.994 23.2738C33.994 22.3287 34.7626 21.5625 35.7108 21.5625C36.659 21.5625 37.4277 22.3287 37.4277 23.2738C37.4277 24.2189 36.659 24.9851 35.7108 24.9851Z" fill="white"></path>
    <path d="M28.8434 18.1399C27.8952 18.1399 27.1265 17.3737 27.1265 16.4286C27.1265 15.4835 27.8952 14.7173 28.8434 14.7173C29.7916 14.7173 30.5602 15.4835 30.5602 16.4286C30.5602 17.3737 29.7916 18.1399 28.8434 18.1399Z" fill="white"></path>
    <path d="M21.9759 11.2946C21.0277 11.2946 20.259 10.5284 20.259 9.58332C20.259 8.63819 21.0277 7.87201 21.9759 7.87201C22.9241 7.87201 23.6927 8.63819 23.6927 9.58332C23.6927 10.5284 22.9241 11.2946 21.9759 11.2946Z" fill="white"></path>
    <path d="M15.1084 4.44941C14.1602 4.44941 13.3916 3.68323 13.3916 2.7381C13.3916 1.79297 14.1602 1.02679 15.1084 1.02679C16.0566 1.02679 16.8253 1.79297 16.8253 2.7381C16.8253 3.68323 16.0566 4.44941 15.1084 4.44941Z" fill="white"></path>
    <path d="M63.1807 59.0402C62.3273 59.0402 61.6355 58.3506 61.6355 57.5C61.6355 56.6494 62.3273 55.9598 63.1807 55.9598C64.0341 55.9598 64.7259 56.6494 64.7259 57.5C64.7259 58.3506 64.0341 59.0402 63.1807 59.0402Z" fill="white"></path>
    <path d="M56.3132 52.195C55.4599 52.195 54.7681 51.5054 54.7681 50.6548C54.7681 49.8042 55.4599 49.1146 56.3132 49.1146C57.1666 49.1146 57.8584 49.8042 57.8584 50.6548C57.8584 51.5054 57.1666 52.195 56.3132 52.195Z" fill="white"></path>
    <path d="M56.3132 65.8854C55.4599 65.8854 54.7681 65.1958 54.7681 64.3452C54.7681 63.4946 55.4599 62.8051 56.3132 62.8051C57.1666 62.8051 57.8584 63.4946 57.8584 64.3452C57.8584 65.1958 57.1666 65.8854 56.3132 65.8854Z" fill="white"></path>
    <path d="M49.4458 72.7307C48.5924 72.7307 47.9006 72.0411 47.9006 71.1905C47.9006 70.3399 48.5924 69.6503 49.4458 69.6503C50.2991 69.6503 50.9909 70.3399 50.9909 71.1905C50.9909 72.0411 50.2991 72.7307 49.4458 72.7307Z" fill="white"></path>
    <path d="M42.5783 79.5759C41.7249 79.5759 41.0331 78.8863 41.0331 78.0357C41.0331 77.1851 41.7249 76.4955 42.5783 76.4955C43.4317 76.4955 44.1235 77.1851 44.1235 78.0357C44.1235 78.8863 43.4317 79.5759 42.5783 79.5759Z" fill="white"></path>
    <path d="M35.7108 86.4212C34.8575 86.4212 34.1657 85.7316 34.1657 84.881C34.1657 84.0304 34.8575 83.3408 35.7108 83.3408C36.5642 83.3408 37.256 84.0304 37.256 84.881C37.256 85.7316 36.5642 86.4212 35.7108 86.4212Z" fill="white"></path>
    <path d="M28.8434 93.2664C27.99 93.2664 27.2982 92.5768 27.2982 91.7262C27.2982 90.8756 27.99 90.186 28.8434 90.186C29.6967 90.186 30.3885 90.8756 30.3885 91.7262C30.3885 92.5768 29.6967 93.2664 28.8434 93.2664Z" fill="white"></path>
    <path d="M21.9759 100.112C21.1225 100.112 20.4307 99.422 20.4307 98.5714C20.4307 97.7208 21.1225 97.0312 21.9759 97.0312C22.8293 97.0312 23.5211 97.7208 23.5211 98.5714C23.5211 99.422 22.8293 100.112 21.9759 100.112Z" fill="white"></path>
    <path d="M15.1084 106.957C14.255 106.957 13.5632 106.267 13.5632 105.417C13.5632 104.566 14.255 103.876 15.1084 103.876C15.9618 103.876 16.6536 104.566 16.6536 105.417C16.6536 106.267 15.9618 106.957 15.1084 106.957Z" fill="white"></path>
    <path d="M8.24095 113.802C7.38757 113.802 6.69577 113.113 6.69577 112.262C6.69577 111.411 7.38757 110.722 8.24095 110.722C9.09433 110.722 9.78613 111.411 9.78613 112.262C9.78613 113.113 9.09433 113.802 8.24095 113.802Z" fill="white"></path>
    <path d="M49.4458 45.3497C48.5924 45.3497 47.9006 44.6601 47.9006 43.8095C47.9006 42.9589 48.5924 42.2693 49.4458 42.2693C50.2991 42.2693 50.9909 42.9589 50.9909 43.8095C50.9909 44.6601 50.2991 45.3497 49.4458 45.3497Z" fill="white"></path>
    <path d="M42.5783 38.5045C41.7249 38.5045 41.0331 37.8149 41.0331 36.9643C41.0331 36.1137 41.7249 35.4241 42.5783 35.4241C43.4317 35.4241 44.1235 36.1137 44.1235 36.9643C44.1235 37.8149 43.4317 38.5045 42.5783 38.5045Z" fill="white"></path>
    <path d="M35.7108 31.6593C34.8575 31.6593 34.1657 30.9697 34.1657 30.1191C34.1657 29.2685 34.8575 28.5789 35.7108 28.5789C36.5642 28.5789 37.256 29.2685 37.256 30.1191C37.256 30.9697 36.5642 31.6593 35.7108 31.6593Z" fill="white"></path>
    <path d="M28.8434 24.814C27.99 24.814 27.2982 24.1244 27.2982 23.2738C27.2982 22.4232 27.99 21.7336 28.8434 21.7336C29.6967 21.7336 30.3885 22.4232 30.3885 23.2738C30.3885 24.1244 29.6967 24.814 28.8434 24.814Z" fill="white"></path>
    <path d="M21.9759 17.9688C21.1225 17.9688 20.4307 17.2792 20.4307 16.4286C20.4307 15.578 21.1225 14.8884 21.9759 14.8884C22.8293 14.8884 23.5211 15.578 23.5211 16.4286C23.5211 17.2792 22.8293 17.9688 21.9759 17.9688Z" fill="white"></path>
    <path d="M15.1084 11.1235C14.255 11.1235 13.5632 10.4339 13.5632 9.58333C13.5632 8.73271 14.255 8.04315 15.1084 8.04315C15.9618 8.04315 16.6536 8.73271 16.6536 9.58333C16.6536 10.4339 15.9618 11.1235 15.1084 11.1235Z" fill="white"></path>
    <path d="M8.24095 4.27829C7.38757 4.27829 6.69577 3.58873 6.69577 2.73812C6.69577 1.8875 7.38757 1.19794 8.24095 1.19794C9.09433 1.19794 9.78613 1.8875 9.78613 2.73812C9.78613 3.58873 9.09433 4.27829 8.24095 4.27829Z" fill="white"></path>
  </g>
  <defs>
    <clipPath id="clip0_175_4139">
      <rect width="114" height="115" fill="white" transform="matrix(-1 0 0 1 114 0)"></rect>
    </clipPath>
  </defs>
</svg>
