<svg width="32" height="33" viewBox="0 0 32 33" fill="none" xmlns="http://www.w3.org/2000/svg">
<g clip-path="url(#clip0_71_749)">
<circle cx="16" cy="16.263" r="16" fill="#444444"/>
<circle cx="16" cy="16.263" r="12" fill="white"/>
<path d="M18.2804 18.7716C17.8735 20.4066 15.121 19.523 14.2285 19.3013L14.9513 16.403C15.8438 16.6257 18.706 17.0668 18.2804 18.7716Z" fill="#444444"/>
<path d="M18.6877 14.53C18.3165 16.0168 16.0252 15.2612 15.2822 15.0761L15.9376 12.4473C16.681 12.6325 19.0744 12.9784 18.6877 14.53Z" fill="#444444"/>
<path d="M18.901 4.62205C12.474 3.01937 5.96263 6.93203 4.36093 13.3613C2.75736 19.7893 6.6695 26.3006 13.0965 27.9037C19.5253 29.5068 26.0367 25.5942 27.6393 19.1658C29.242 12.737 25.3298 6.22467 18.901 4.62205ZM13.5301 12.3587C13.5465 12.0788 13.4499 11.7259 12.9165 11.5928C12.9371 11.5792 11.9602 11.3551 11.9602 11.3551L12.3108 9.94887L14.1263 10.4022L14.1249 10.4092C14.3977 10.4767 14.679 10.5414 14.9658 10.6065L15.5054 8.44422L16.8211 8.77233L16.2924 10.8925C16.6453 10.9731 17.0011 11.0542 17.3471 11.1404L17.8721 9.03481L19.1888 9.36292L18.6497 11.5257C20.3119 12.0986 21.5278 12.9568 21.2887 14.5534C21.1158 15.7224 20.468 16.2882 19.6078 16.4865C20.789 17.1015 21.39 18.0446 20.8172 19.6796C20.1066 21.7102 18.4186 21.8813 16.1733 21.4566L15.6287 23.64L14.312 23.3119L14.8496 21.158C14.5084 21.0732 14.1596 20.9832 13.8006 20.8857L13.261 23.0498L11.9457 22.7217L12.4909 20.5341C12.1834 20.4553 11.8707 20.3719 11.552 20.2918L9.8387 19.8647L10.4921 18.3577C10.4921 18.3577 11.4624 18.6155 11.4493 18.5968C11.822 18.6887 11.9874 18.4458 12.0526 18.2837L13.5301 12.3587Z" fill="#444444"/>
</g>
<defs>
<clipPath id="clip0_71_749">
<rect width="32" height="32" fill="white" transform="translate(0 0.26297)"/>
</clipPath>
</defs>
</svg>
