<svg width="40" height="40" viewBox="0 0 40 40" fill="none" xmlns="http://www.w3.org/2000/svg">
<circle cx="20" cy="20" r="20" fill="#0038B8"/>
<g clip-path="url(#clip0_126_1121)">
<rect x="8" y="8" width="24" height="24" rx="7" fill="white"/>
<path d="M22.1094 20C22.1094 21.1649 21.1649 22.1094 20 22.1094C18.8351 22.1094 17.8906 21.1649 17.8906 20C17.8906 18.8351 18.8351 17.8906 20 17.8906C21.1649 17.8906 22.1094 18.8351 22.1094 20Z" fill="#0038B8"/>
<path d="M23.5625 13.625H16.4375C14.8866 13.625 13.625 14.8866 13.625 16.4375V23.5625C13.625 25.1134 14.8866 26.375 16.4375 26.375H23.5625C25.1134 26.375 26.375 25.1134 26.375 23.5625V16.4375C26.375 14.8866 25.1134 13.625 23.5625 13.625ZM20 23.5156C18.0615 23.5156 16.4844 21.9385 16.4844 20C16.4844 18.0615 18.0615 16.4844 20 16.4844C21.9385 16.4844 23.5156 18.0615 23.5156 20C23.5156 21.9385 21.9385 23.5156 20 23.5156ZM24.0312 16.6719C23.6429 16.6719 23.3281 16.3571 23.3281 15.9688C23.3281 15.5804 23.6429 15.2656 24.0312 15.2656C24.4196 15.2656 24.7344 15.5804 24.7344 15.9688C24.7344 16.3571 24.4196 16.6719 24.0312 16.6719Z" fill="#0038B8"/>
<path d="M25.6719 8H14.3281C10.8389 8 8 10.8389 8 14.3281V25.6719C8 29.1611 10.8389 32 14.3281 32H25.6719C29.1611 32 32 29.1611 32 25.6719V14.3281C32 10.8389 29.1611 8 25.6719 8ZM27.7812 23.5625C27.7812 25.8887 25.8887 27.7812 23.5625 27.7812H16.4375C14.1113 27.7812 12.2188 25.8887 12.2188 23.5625V16.4375C12.2188 14.1113 14.1113 12.2188 16.4375 12.2188H23.5625C25.8887 12.2188 27.7812 14.1113 27.7812 16.4375V23.5625Z" fill="#0038B8"/>
</g>
<defs>
<clipPath id="clip0_126_1121">
<rect width="24" height="24" fill="white" transform="translate(8 8)"/>
</clipPath>
</defs>
</svg>
