<svg width="308" height="36" viewBox="0 0 308 36" fill="none" xmlns="http://www.w3.org/2000/svg">
<path d="M67.0121 16.2632L63.7884 14.8948V9.90705H67.0121V16.2632ZM67.0779 25.3559H60.126C57.7356 25.3559 55.6961 25.0249 54.139 23.8772C52.582 22.7296 51.8144 20.7875 51.7925 18.5584V16.7045C51.8144 14.4755 52.582 12.5554 54.139 11.3857C55.6961 10.2381 57.7356 9.90705 60.126 9.90705H62.1436V12.9085H60.126C57.7575 12.9085 56.7268 13.372 56.047 13.8575C55.3891 14.3651 55.0162 15.1597 55.0162 16.8149V18.4481C55.0162 20.1033 55.3891 20.8978 56.047 21.3833C56.7268 21.891 58.0645 22.3544 60.126 22.3544H65.7182L67.0779 25.3559Z" fill="#1B1B1B"/>
<path d="M73.3188 12.9085L76.9592 16.7487C77.4198 16.7266 77.8364 16.7045 78.2312 16.6383C78.9549 16.5721 79.5031 16.3294 79.854 15.9542C80.0953 15.7114 80.2268 15.3362 80.2268 14.8507C80.2268 14.3431 80.1172 13.9679 79.876 13.7031C79.6347 13.4603 79.3277 13.2617 78.911 13.1513C78.4943 13.041 78.0338 12.9527 77.5075 12.9306C76.9592 12.9085 76.411 12.9085 75.8408 12.9085H73.3188ZM72.31 19.7722V25.3559H69.0862V16.7708H72.7705L69.0862 12.9085V9.90705H76.2575C76.9154 9.88498 77.5952 9.90705 78.297 9.97326C78.9768 10.0395 79.6786 10.194 80.4023 10.4367C81.2137 10.7016 81.9374 11.2092 82.5734 11.9595C83.1655 12.7761 83.4506 13.7472 83.4506 14.8507C83.4506 15.9321 83.1436 16.9032 82.5515 17.7198C82.1567 18.2274 81.6962 18.6025 81.1698 18.8895C80.6435 19.1764 80.1172 19.375 79.5689 19.4853L84.9857 25.3559H80.7751L75.5557 19.7722H72.31Z" fill="#1B1B1B"/>
<path d="M93.4894 25.3559H90.2437V19.5516L83.0067 9.90705H87.0857L93.4894 19.0881V25.3559ZM94.4762 18.2494L92.656 15.6452L96.6473 9.90705H100.726L94.4762 18.2494Z" fill="#1B1B1B"/>
<path d="M104.906 25.3559H101.682V16.7487H109.818C110.651 16.7266 111.419 16.6163 111.967 16.3294C112.494 16.0645 112.822 15.6231 112.822 14.8507C112.822 14.3431 112.691 13.99 112.472 13.7251C112.252 13.4603 111.923 13.2837 111.507 13.1513C110.695 12.9085 109.577 12.9085 108.436 12.9085H104.906V14.4314H101.682V9.90705H108.853C110.169 9.90705 111.594 9.95119 112.998 10.4367C113.765 10.7236 114.577 11.1871 115.169 11.9595C115.717 12.7099 116.024 13.681 116.046 14.7403V14.939C116.024 15.9983 115.717 16.9694 115.147 17.7198C114.577 18.4922 113.765 18.9557 112.976 19.2426C111.529 19.7502 110.037 19.7722 108.743 19.7722H104.906V25.3559Z" fill="#1B1B1B"/>
<path d="M132.074 9.90705L133.434 12.9085H116.701L118.061 9.90705H132.074ZM126.68 25.3559H123.456V14.2327H126.68V25.3559Z" fill="#1B1B1B"/>
<path d="M152.223 16.8811H148.999C148.999 15.0935 148.648 14.3431 147.947 13.7913C146.982 13.041 145.578 12.9085 142.683 12.9085C139.767 12.9085 138.363 13.4824 137.859 14.8286C137.661 15.3141 137.574 15.9321 137.574 16.8811H134.35C134.35 14.4755 135.052 12.4671 136.652 11.2092C138.231 9.99533 140.271 9.64221 142.683 9.64221H143.999C146.346 9.66428 148.363 10.0174 149.92 11.2092C151.543 12.4671 152.223 14.4755 152.223 16.8811ZM142.683 25.6207C140.271 25.6207 138.231 25.2676 136.652 24.0538C135.052 22.7958 134.35 20.7875 134.35 18.3819H137.574V18.4922C137.574 20.1695 137.924 20.9419 138.626 21.4716C139.591 22.222 140.995 22.3544 143.889 22.3544C146.806 22.3544 148.21 21.7806 148.714 20.4343C148.89 19.9709 148.999 19.3529 148.999 18.4922V18.3819H152.223C152.223 20.7875 151.543 22.7958 149.92 24.0538C148.363 25.2456 146.346 25.5987 143.999 25.5987L142.683 25.6207Z" fill="#1B1B1B"/>
<path d="M170.574 9.90705L178.118 25.3559H174.368L173.096 22.553H164.916L163.644 25.3559H159.872L166.692 11.3857L168.337 14.9831L166.276 19.5736H171.714L167.328 9.90705H170.574Z" fill="#1B1B1B"/>
<path d="M186.207 9.90705L187.567 12.9085H178.159L179.497 9.97326L179.519 9.90705H186.207ZM184.475 13.7251V22.3544H187.435L186.076 25.3559H179.65L178.356 22.5089L178.29 22.3544H181.251V13.7251H184.475Z" fill="#1B1B1B"/>
<path d="M198.182 25.3559H189.147V22.3544H198.182C200.243 22.3544 201.581 21.7585 202.261 21.2509C202.963 20.7213 203.292 20.0371 203.292 18.4481V16.8149C203.292 15.2479 202.963 14.5417 202.261 14.012C201.581 13.5044 200.243 12.9085 198.182 12.9085H192.37V21.0302H189.147V9.90705H198.182C200.594 9.90705 202.612 10.2381 204.169 11.3857C205.726 12.5554 206.493 14.4755 206.515 16.7045V18.5584C206.493 20.7875 205.726 22.7296 204.169 23.8772C202.612 25.0249 200.594 25.3559 198.182 25.3559Z" fill="#1B1B1B"/>
<path d="M222.208 9.90705L223.568 12.9085H214.16L215.497 9.97326L215.519 9.90705H222.208ZM220.476 13.7251V22.3544H223.436L222.077 25.3559H215.651L214.357 22.5089L214.291 22.3544H217.252V13.7251H220.476Z" fill="#1B1B1B"/>
<path d="M240.543 15.7555L237.319 14.3872V9.90705H240.543V15.7555ZM233.722 25.3559H224.533L225.893 22.3544H233.327C234.117 22.3544 235.213 22.3544 236.113 22.1337C236.551 22.0234 236.946 21.8689 237.231 21.6261C237.516 21.3833 237.67 21.0964 237.67 20.6771C237.67 20.2578 237.516 19.9709 237.231 19.7502C236.968 19.5295 236.573 19.375 236.113 19.2867C235.499 19.1543 234.753 19.1322 234.095 19.1322H233.284L230.586 19.1543C229.643 19.1543 228.656 19.0881 227.691 18.7791C226.924 18.5143 226.134 18.0949 225.52 17.3666C224.928 16.6383 224.599 15.6452 224.599 14.5858C224.599 13.5265 224.928 12.5334 225.52 11.8051C226.134 11.0767 226.924 10.6574 227.691 10.3926C229.051 9.95119 230.455 9.90705 231.683 9.90705H236.003V12.9085H232.209C231.222 12.9085 230.104 12.9085 229.248 13.1292C228.81 13.2175 228.459 13.372 228.218 13.6148C227.955 13.8355 227.823 14.1224 227.823 14.5196C227.823 14.9169 227.976 15.2038 228.218 15.4245C228.459 15.6673 228.832 15.8218 229.27 15.9321C230.126 16.1307 231.244 16.1307 232.209 16.1307L234.906 16.1087C235.849 16.1087 236.836 16.1749 237.801 16.4838C238.569 16.7487 239.358 17.168 239.972 17.8963C240.564 18.6246 240.893 19.6178 240.893 20.6771C240.893 21.7365 240.564 22.7296 239.972 23.4579C239.358 24.1862 238.569 24.6055 237.801 24.8704C236.42 25.3338 234.972 25.3559 233.722 25.3559Z" fill="#1B1B1B"/>
<path d="M246.898 12.9085L250.538 16.7487C250.999 16.7266 251.416 16.7045 251.81 16.6383C252.534 16.5721 253.082 16.3294 253.433 15.9542C253.675 15.7114 253.806 15.3362 253.806 14.8507C253.806 14.3431 253.696 13.9679 253.455 13.7031C253.214 13.4603 252.907 13.2617 252.49 13.1513C252.074 13.041 251.613 12.9527 251.087 12.9306C250.538 12.9085 249.99 12.9085 249.42 12.9085H246.898ZM245.889 19.7722V25.3559H242.665V16.7708H246.35L242.665 12.9085V9.90705H249.837C250.495 9.88498 251.174 9.90705 251.876 9.97326C252.556 10.0395 253.258 10.194 253.982 10.4367C254.793 10.7016 255.517 11.2092 256.153 11.9595C256.745 12.7761 257.03 13.7472 257.03 14.8507C257.03 15.9321 256.723 16.9032 256.131 17.7198C255.736 18.2274 255.275 18.6025 254.749 18.8895C254.223 19.1764 253.696 19.375 253.148 19.4853L258.565 25.3559H254.354L249.135 19.7722H245.889Z" fill="#1B1B1B"/>
<path d="M269.582 9.90705L277.126 25.3559H273.375L272.104 22.553H263.923L262.652 25.3559H258.88L265.7 11.3857L267.345 14.9831L265.283 19.5736H270.722L266.336 9.90705H269.582Z" fill="#1B1B1B"/>
<path d="M288.526 16.1307L289.886 19.1322H278.044V9.90705H291.597L292.956 12.9085H281.267V16.1307H288.526ZM281.267 20.633V22.3544H292.956L291.597 25.3559H278.044V20.633H281.267Z" fill="#1B1B1B"/>
<path d="M297.846 22.3544H308L306.662 25.3559H294.623V9.90705H297.846V22.3544Z" fill="#1B1B1B"/>
<path d="M21.0281 8.98859H19.77H11.3346H10.0658H8.79774H0L4.1639 15.9544L4.45134 16.4359L5.09374 17.5098L5.73481 18.5837L11.255 27.819L11.9148 28.9245L12.5766 30.03L15.7037 35.263L18.8041 30.0757L19.4585 28.9803L20.1129 27.8842L25.4219 19.0019L26.069 17.9193L26.7161 16.8367L31.4061 8.98859H22.2868H21.0281Z" fill="#0038B8"/>
<path fill-rule="evenodd" clip-rule="evenodd" d="M20.9696 26.4515H19.77H11.3346H10.4368L5.20132 17.6915L5.73481 16.7917L10.3678 8.98852H21.0392L25.4219 16.3707L26.069 17.4606L26.2055 17.6905L20.9696 26.4515ZM27.5975 20.0353L27.4662 20.255L23.7628 26.4515H31.4061L27.5975 20.0353ZM11.8037 6.56851H19.603L19.4585 6.32496L18.8041 5.22216L15.7037 -6.10352e-05L12.5766 5.26819L11.9148 6.38115L11.8037 6.56851ZM3.80922 20.0361L7.64357 26.4515H0L3.80922 20.0361Z" fill="#0038B8"/>
</svg>
