<svg width="40" height="40" viewBox="0 0 40 40" fill="none" xmlns="http://www.w3.org/2000/svg">
<circle cx="20" cy="20" r="20" fill="#0038B8"/>
<g clip-path="url(#clip0_126_1154)">
<rect x="8" y="8" width="24" height="24" rx="12" fill="white"/>
<path fill-rule="evenodd" clip-rule="evenodd" d="M20 8C13.3728 8 8 13.3728 8 20C8 26.6272 13.3728 32 20 32C26.6272 32 32 26.6272 32 20C32 13.3728 26.6272 8 20 8ZM25.5622 16.1609C25.3817 18.0584 24.6003 22.663 24.2028 24.7883C24.0345 25.6878 23.7031 25.9892 23.3825 26.0188C22.6859 26.083 22.1567 25.558 21.4817 25.1155C20.4256 24.4231 19.8289 23.9923 18.8038 23.3169C17.6188 22.5359 18.387 22.107 19.062 21.4058C19.2388 21.222 22.3091 18.4292 22.3686 18.1761C22.3761 18.1442 22.3831 18.0261 22.3128 17.9638C22.2425 17.9014 22.1389 17.923 22.0644 17.9398C21.9584 17.9638 20.2709 19.0789 17.0028 21.2853C16.5238 21.6144 16.0902 21.7742 15.7011 21.7662C15.2727 21.7569 14.4486 21.5239 13.8359 21.3247C13.0845 21.0805 12.4873 20.9511 12.5394 20.5363C12.5661 20.3202 12.8637 20.0994 13.4319 19.8734C16.9302 18.3491 19.2627 17.3445 20.4298 16.8589C23.7626 15.4729 24.455 15.2319 24.9064 15.2239C25.4718 15.2139 25.6082 15.6806 25.5622 16.1609Z" fill="#0038B8"/>
</g>
<defs>
<clipPath id="clip0_126_1154">
<rect width="24" height="24" fill="white" transform="translate(8 8)"/>
</clipPath>
</defs>
</svg>
