<svg width="32" height="33" viewBox="0 0 32 33" fill="none" xmlns="http://www.w3.org/2000/svg">
<circle cx="16" cy="16.263" r="16" fill="#444444"/>
<path d="M16 26.5259C21.6681 26.5259 26.2629 21.931 26.2629 16.263C26.2629 10.5949 21.6681 6.00003 16 6.00003C10.3319 6.00003 5.73706 10.5949 5.73706 16.263C5.73706 21.931 10.3319 26.5259 16 26.5259Z" fill="#444444"/>
<path fill-rule="evenodd" clip-rule="evenodd" d="M17.2328 17.1501V17.1488C17.1623 17.1539 16.7986 17.1757 15.9872 17.1757C15.3393 17.1757 14.8832 17.1565 14.7229 17.1488V17.1507C12.229 17.041 10.3676 16.6068 10.3676 16.0872C10.3676 15.5683 12.229 15.1341 14.7229 15.0224V16.7184C14.8858 16.7299 15.3528 16.7575 15.9981 16.7575C16.7723 16.7575 17.1603 16.7255 17.2328 16.719V15.0237C19.7216 15.1347 21.5785 15.5689 21.5785 16.0872C21.5785 16.6068 19.7216 17.0398 17.2328 17.1501ZM17.2328 14.8473V13.3297H20.7055V11.0154H11.2502V13.3297H14.7229V14.8467C11.9006 14.9763 9.77808 15.5356 9.77808 16.2053C9.77808 16.8749 11.9006 17.4336 14.7229 17.5638V22.4272H17.2328V17.5625C20.0506 17.433 22.168 16.8743 22.168 16.2053C22.168 15.5362 20.0506 14.9775 17.2328 14.8473Z" fill="white"/>
</svg>
