<?xml version="1.0" encoding="UTF-8"?>
<svg xmlns="http://www.w3.org/2000/svg" width="51" height="32" viewBox="0 0 51 32" fill="none">
  <rect width="51" height="32" rx="3" fill="#444444"></rect>
  <rect x="4" y="5" width="42" height="23" fill="white"></rect>
  <path d="M48.1062 0H1.27115C0.568259 0 0 0.569133 0 1.27115V30.7288C0 31.4309 0.568259 32 1.27115 32H48.1062C48.8091 32 49.3774 31.4309 49.3774 30.7288V1.27115C49.3774 0.569133 48.8091 0 48.1062 0ZM3.82307 9.67003H9.09303C9.80379 9.69713 10.3764 9.92356 10.574 10.6833L11.7201 16.1954C10.5941 13.3121 7.88045 10.9132 3.77936 9.92006L3.82307 9.67003ZM10.1998 22.2417L7.1557 11.8417C9.34393 13.2422 11.2078 15.4645 11.8644 17.0111L12.2193 18.2953L15.5485 9.7898H19.1503L13.7973 22.2391L10.1998 22.2417ZM21.7976 22.2504H18.3985L20.5238 9.77668H23.9246L21.7976 22.2504ZM27.7127 22.4375C26.1889 22.4218 24.721 22.1202 23.9255 21.7713L24.4037 18.9799L24.8417 19.1783C25.9581 19.6443 26.6811 19.8331 28.0423 19.8331C29.0188 19.8331 30.0653 19.4511 30.0749 18.6153C30.081 18.0689 29.6369 17.679 28.3133 17.067C27.0229 16.4708 25.3146 15.4706 25.3356 13.6793C25.354 11.255 27.7214 9.56337 31.0812 9.56337C32.3978 9.56337 33.453 9.83438 34.1262 10.087L33.6672 12.7911L33.3603 12.6468C32.7344 12.3951 31.9292 12.152 30.8163 12.1695C29.4857 12.1695 28.8685 12.7238 28.8685 13.2422C28.8615 13.8262 29.5888 14.2109 30.7778 14.7896C32.7387 15.6796 33.6453 16.7593 33.6331 18.1782C33.6069 20.7659 31.2875 22.4375 27.7127 22.4375ZM42.4437 22.2557C42.4437 22.2557 42.1334 20.8219 42.0302 20.3865C41.5354 20.3865 38.0664 20.3813 37.6765 20.3813C37.5445 20.7179 36.9622 22.2557 36.9622 22.2557H33.3927L38.4397 10.8249C38.7981 10.0127 39.4057 9.7898 40.2205 9.7898H42.8468L45.598 22.2548L42.4437 22.2557Z" fill="#444444"></path>
  <path d="M40.6891 14.2292L40.46 13.1539C40.2869 13.6234 39.9888 14.3778 40.008 14.3446C40.008 14.3446 38.9336 17.1134 38.6538 17.8311H41.4767C41.3404 17.206 40.6891 14.2292 40.6891 14.2292Z" fill="#444444"></path>
</svg>
